[Header]                  # Header keywords are followed by a single value
FileType htr              # single word string
DataType HTRS             # Hierarchical translations followed by rotations and Scale
FileVersion 1             # integer
NumSegments   22        # integer
NumFrames   5          # integer
DataFrameRate    60      # integer
EulerRotationOrder ZYX    # one word string
CalibrationUnits mm   # one word string
RotationUnits Degrees     # one word string
GlobalAxisofGravity Y        # character, X or Y or Z
BoneLengthAxis Y
ScaleFactor 1.0000
[SegmentNames&Hierarchy]
#CHILD         PARENT
LowerTorso	GLOBAL
MidTorso1	LowerTorso
MidTorso2	MidTorso1
UpperTorso	MidTorso2
Neck	UpperTorso
Head	Neck
LCollar	UpperTorso
LUpArm	LCollar
LLowArm	LUpArm
LHand	LLowArm
RCollar	UpperTorso
RUpArm	RCollar
RLowArm	RUpArm
RHand	RLowArm
RThigh	LowerTorso
RLowLeg	RThigh
RFoot	RLowLeg
RToe	RFoot
LThigh	LowerTorso
LLowLeg	LThigh
LFoot	LLowLeg
LToe	LFoot
[BasePosition]
#SegmentName Tx, Ty, Tz, Rx, Ry, Rz, BoneLength
LowerTorso	245.858011	950.547112	300.901792	3.160114	-0.119681	0.216534	50.177140	
MidTorso1	0.000000	50.177140	0.000000	12.744977	0.544086	-1.233692	50.243103	
MidTorso2	0.000000	50.243103	0.000000	-8.561622	-5.666755	-0.324056	70.108070	
UpperTorso	0.000000	70.108070	0.000000	-7.840640	5.423498	1.565454	211.798493	
Neck	0.000000	211.798493	0.000000	3.763396	2.354772	0.143986	247.477358	
Head	0.000000	247.477358	0.000000	87.188098	-1.617490	-0.909978	97.755902	
LCollar	5.963899	207.774288	0.020038	-0.085181	3.120430	-88.053499	154.341182	
LUpArm	0.000000	154.341182	0.000000	17.609330	2.601210	1.098979	257.694232	
LLowArm	0.000000	257.694232	0.000000	-4.295116	-4.411555	-0.381267	245.288314	
LHand	0.000000	245.288314	0.000000	-1.254656	0.451892	-3.187610	143.943585	
RCollar	-6.407295	207.548200	-0.033576	-3.957489	-2.573361	89.782717	159.716168	
RUpArm	0.000000	159.716168	0.000000	10.569861	0.025507	1.593474	259.181013	
RLowArm	0.000000	259.181013	0.000000	2.433186	-0.094719	0.439860	254.783021	
RHand	0.000000	254.783021	0.000000	-2.521327	-1.940663	10.821380	138.724995	
RThigh	-104.582724	-43.868855	71.110148	1.186921	1.056410	177.271085	484.665755	
RLowLeg	0.000000	484.665755	0.000000	-9.413113	-2.560999	2.584420	338.943480	
RFoot	0.000000	338.943480	0.000000	38.119802	-1.210697	-2.462270	108.422675	
RToe	0.000000	108.422675	0.000000	62.205972	5.729825	0.107186	135.948299	
LThigh	104.514322	-44.027056	71.110540	1.887019	-3.794944	-176.973714	484.665500	
LLowLeg	0.000000	484.665500	0.000000	-9.413064	2.561022	-2.584327	338.944952	
LFoot	0.000000	338.944952	0.000000	38.119895	1.210631	2.462181	108.422417	
LToe	0.000000	108.422417	0.000000	62.206117	-5.729564	-0.107296	135.948400	
#Beginning of Data. Separated by tabs
[LowerTorso]
#Fr     Tx      Ty      Tz      Rx      Ry      Rz      SF
438	273.423279	16.837618	364.240692	5.171533	-11.410993	2.974361	1.000000	
439	264.723450	8.253467	360.208679	5.610853	-10.576238	3.119916	1.000000	
440	255.209473	-2.747169	355.852356	6.051213	-9.594140	2.960308	1.000000	
441	244.671921	-15.816224	351.313263	6.449585	-8.541038	2.436168	1.000000	
442	231.658218	-30.911413	346.749176	5.786034	-7.168193	1.466347	1.000000	
[MidTorso1]
#Fr     Tx      Ty      Tz      Rx      Ry      Rz      SF
438	0.000000	0.000000	0.000000	0.770927	-1.085640	-1.332730	1.000000	
439	0.000000	0.000000	0.000000	0.703079	-1.108289	-1.158829	1.000000	
440	0.000000	0.000000	0.000000	0.674541	-1.057865	-0.949563	1.000000	
441	0.000000	0.000000	0.000000	0.683709	-0.898072	-0.726582	1.000000	
442	0.000000	0.000000	0.000000	1.166286	-0.807288	-0.525546	1.000000	
[MidTorso2]
#Fr     Tx      Ty      Tz      Rx      Ry      Rz      SF
438	0.000000	0.000000	0.000000	0.641495	-0.861908	-1.546008	1.000000	
439	0.000000	0.000000	0.000000	0.591911	-0.911073	-1.371947	1.000000	
440	0.000000	0.000000	0.000000	0.584353	-0.892349	-1.156153	1.000000	
441	0.000000	0.000000	0.000000	0.614673	-0.766757	-0.914279	1.000000	
442	0.000000	0.000000	0.000000	1.114934	-0.695977	-0.749798	1.000000	
[UpperTorso]
#Fr     Tx      Ty      Tz      Rx      Ry      Rz      SF
438	0.000000	0.000000	0.000000	0.758057	-0.667142	-1.588682	1.000000	
439	0.000000	0.000000	0.000000	0.691640	-0.737824	-1.428182	1.000000	
440	0.000000	0.000000	0.000000	0.664904	-0.748752	-1.213151	1.000000	
441	0.000000	0.000000	0.000000	0.676130	-0.658969	-0.954019	1.000000	
442	0.000000	0.000000	0.000000	1.160161	-0.632183	-0.737095	1.000000	
[Neck]
#Fr     Tx      Ty      Tz      Rx      Ry      Rz      SF
438	0.000000	0.000000	0.000000	5.586572	-35.401611	-10.701591	1.000000	
439	0.000000	0.000000	0.000000	4.826557	-35.768463	-10.913860	1.000000	
440	0.000000	0.000000	0.000000	3.886719	-36.263565	-10.828924	1.000000	
441	0.000000	0.000000	0.000000	2.937351	-36.957470	-10.438098	1.000000	
442	0.000000	0.000000	0.000000	1.722325	-37.746174	-9.263420	1.000000	
[Head]
#Fr     Tx      Ty      Tz      Rx      Ry      Rz      SF
438	0.000000	0.000000	0.000000	-2.266901	2.689417	-0.289447	1.000000	
439	0.000000	0.000000	0.000000	-2.159037	2.704930	-0.290872	1.000000	
440	0.000000	0.000000	0.000000	-2.081442	2.727853	-0.286783	1.000000	
441	0.000000	0.000000	0.000000	-2.146297	2.828320	-0.272365	1.000000	
442	0.000000	0.000000	0.000000	-2.570248	3.070416	-0.268299	1.000000	
[LCollar]
#Fr     Tx      Ty      Tz      Rx      Ry      Rz      SF
438	0.000000	0.000000	0.000000	7.928720	2.168834	-15.201566	1.000000	
439	0.000000	0.000000	0.000000	7.885856	2.247308	-15.806832	1.000000	
440	0.000000	0.000000	0.000000	7.738886	2.309488	-16.516359	1.000000	
441	0.000000	0.000000	0.000000	7.545689	2.362877	-17.288067	1.000000	
442	0.000000	0.000000	0.000000	8.107543	2.592157	-17.613159	1.000000	
[LUpArm]
#Fr     Tx      Ty      Tz      Rx      Ry      Rz      SF
438	0.000000	0.000000	0.000000	-3.943937	19.345512	-49.763359	1.000000	
439	0.000000	0.000000	0.000000	-4.865625	18.168102	-50.326069	1.000000	
440	0.000000	0.000000	0.000000	-5.416401	16.892731	-50.372101	1.000000	
441	0.000000	0.000000	0.000000	-5.630426	15.581012	-49.830517	1.000000	
442	0.000000	0.000000	0.000000	-6.293351	13.596765	-48.628326	1.000000	
[LLowArm]
#Fr     Tx      Ty      Tz      Rx      Ry      Rz      SF
438	0.000000	0.000000	0.000000	104.042885	-0.012149	-0.015559	1.000000	
439	0.000000	0.000000	0.000000	99.463120	-0.012353	-0.014579	1.000000	
440	0.000000	0.000000	0.000000	94.500420	-0.012485	-0.013503	1.000000	
441	0.000000	0.000000	0.000000	89.343040	-0.012522	-0.012377	1.000000	
442	0.000000	0.000000	0.000000	85.458160	-0.012484	-0.011529	1.000000	
[LHand]
#Fr     Tx      Ty      Tz      Rx      Ry      Rz      SF
438	0.000000	0.000000	0.000000	174.913651	1.804328	166.471466	1.000000	
439	0.000000	0.000000	0.000000	173.364273	4.992041	167.448471	1.000000	
440	0.000000	0.000000	0.000000	172.098389	7.914280	168.366425	1.000000	
441	0.000000	0.000000	0.000000	171.158752	10.545331	169.401566	1.000000	
442	0.000000	0.000000	0.000000	171.084702	12.968918	169.995972	1.000000	
[RCollar]
#Fr     Tx      Ty      Tz      Rx      Ry      Rz      SF
438	0.000000	0.000000	0.000000	3.613594	-0.937573	14.525683	1.000000	
439	0.000000	0.000000	0.000000	3.645398	-0.929474	14.284626	1.000000	
440	0.000000	0.000000	0.000000	3.809938	-0.958942	14.106695	1.000000	
441	0.000000	0.000000	0.000000	3.988192	-1.001858	14.078429	1.000000	
442	0.000000	0.000000	0.000000	3.403813	-0.901289	14.813290	1.000000	
[RUpArm]
#Fr     Tx      Ty      Tz      Rx      Ry      Rz      SF
438	0.000000	0.000000	0.000000	-4.561954	-19.112295	43.843269	1.000000	
439	0.000000	0.000000	0.000000	-4.135476	-17.429689	42.674511	1.000000	
440	0.000000	0.000000	0.000000	-4.151962	-15.293839	41.488632	1.000000	
441	0.000000	0.000000	0.000000	-4.619649	-12.819254	40.291576	1.000000	
442	0.000000	0.000000	0.000000	-3.917165	-11.527923	37.863464	1.000000	
[RLowArm]
#Fr     Tx      Ty      Tz      Rx      Ry      Rz      SF
438	0.000000	0.000000	0.000000	97.396477	0.000004	0.000047	1.000000	
439	0.000000	0.000000	0.000000	94.606789	0.000005	0.000045	1.000000	
440	0.000000	0.000000	0.000000	91.468102	0.000006	0.000044	1.000000	
441	0.000000	0.000000	0.000000	87.958626	0.000007	0.000043	1.000000	
442	0.000000	0.000000	0.000000	84.166985	0.000008	0.000041	1.000000	
[RHand]
#Fr     Tx      Ty      Tz      Rx      Ry      Rz      SF
438	0.000000	0.000000	0.000000	173.531433	14.822481	-178.695114	1.000000	
439	0.000000	0.000000	0.000000	173.941132	13.430964	-178.281982	1.000000	
440	0.000000	0.000000	0.000000	174.074722	11.687128	-177.996582	1.000000	
441	0.000000	0.000000	0.000000	174.064545	10.466402	-177.778564	1.000000	
442	0.000000	0.000000	0.000000	175.212997	8.942670	-177.831970	1.000000	
[RThigh]
#Fr     Tx      Ty      Tz      Rx      Ry      Rz      SF
438	0.000000	0.000000	0.000000	20.547523	-21.358007	-17.374842	1.000000	
439	0.000000	0.000000	0.000000	20.242527	-21.155811	-17.552467	1.000000	
440	0.000000	0.000000	0.000000	20.042202	-20.966084	-17.217455	1.000000	
441	0.000000	0.000000	0.000000	20.126266	-20.786062	-16.214851	1.000000	
442	0.000000	0.000000	0.000000	19.121937	-21.060719	-13.980309	1.000000	
[RLowLeg]
#Fr     Tx      Ty      Tz      Rx      Ry      Rz      SF
438	0.000000	0.000000	0.000000	-26.597034	0.000000	-0.000010	1.000000	
439	0.000000	0.000000	0.000000	-26.119892	0.000000	-0.000010	1.000000	
440	0.000000	0.000000	0.000000	-26.312832	0.000000	-0.000010	1.000000	
441	0.000000	0.000000	0.000000	-27.510572	0.000000	-0.000010	1.000000	
442	0.000000	0.000000	0.000000	-28.320143	0.000000	-0.000010	1.000000	
[RFoot]
#Fr     Tx      Ty      Tz      Rx      Ry      Rz      SF
438	0.000000	0.000000	0.000000	-9.709303	1.990648	11.476121	1.000000	
439	0.000000	0.000000	0.000000	-9.932493	1.896603	10.702593	1.000000	
440	0.000000	0.000000	0.000000	-8.637492	1.600945	10.421313	1.000000	
441	0.000000	0.000000	0.000000	-6.149299	1.055303	9.700665	1.000000	
442	0.000000	0.000000	0.000000	-6.968303	1.031294	8.377174	1.000000	
[RToe]
#Fr     Tx      Ty      Tz      Rx      Ry      Rz      SF
438	0.000000	0.000000	0.000000	1.725620	0.000003	0.000001	1.000000	
439	0.000000	0.000000	0.000000	4.112033	0.000008	0.000002	1.000000	
440	0.000000	0.000000	0.000000	6.507156	0.000012	0.000003	1.000000	
441	0.000000	0.000000	0.000000	9.066453	0.000017	0.000005	1.000000	
442	0.000000	0.000000	0.000000	17.476320	0.000032	0.000012	1.000000	
[LThigh]
#Fr     Tx      Ty      Tz      Rx      Ry      Rz      SF
438	0.000000	0.000000	0.000000	24.234385	-18.947289	-7.181599	1.000000	
439	0.000000	0.000000	0.000000	25.011021	-19.767975	-10.166740	1.000000	
440	0.000000	0.000000	0.000000	25.709976	-20.461838	-12.715425	1.000000	
441	0.000000	0.000000	0.000000	26.313457	-21.053841	-14.672360	1.000000	
442	0.000000	0.000000	0.000000	25.679253	-20.161165	-15.176073	1.000000	
[LLowLeg]
#Fr     Tx      Ty      Tz      Rx      Ry      Rz      SF
438	0.000000	0.000000	0.000000	-50.844017	0.000075	-0.000060	1.000000	
439	0.000000	0.000000	0.000000	-52.096592	0.000076	-0.000062	1.000000	
440	0.000000	0.000000	0.000000	-52.732597	0.000076	-0.000063	1.000000	
441	0.000000	0.000000	0.000000	-53.003788	0.000077	-0.000063	1.000000	
442	0.000000	0.000000	0.000000	-53.203789	0.000077	-0.000064	1.000000	
[LFoot]
#Fr     Tx      Ty      Tz      Rx      Ry      Rz      SF
438	0.000000	0.000000	0.000000	2.181704	0.983353	-24.252354	1.000000	
439	0.000000	0.000000	0.000000	3.287177	1.818870	-28.927111	1.000000	
440	0.000000	0.000000	0.000000	3.745569	2.411307	-32.728600	1.000000	
441	0.000000	0.000000	0.000000	4.021556	2.836617	-35.142952	1.000000	
442	0.000000	0.000000	0.000000	4.865192	3.420698	-35.030853	1.000000	
[LToe]
#Fr     Tx      Ty      Tz      Rx      Ry      Rz      SF
438	0.000000	0.000000	0.000000	-8.936923	-0.000025	-0.000001	1.000000	
439	0.000000	0.000000	0.000000	-10.661287	-0.000030	-0.000001	1.000000	
440	0.000000	0.000000	0.000000	-12.194786	-0.000035	0.000000	1.000000	
441	0.000000	0.000000	0.000000	-13.602152	-0.000039	0.000000	1.000000	
442	0.000000	0.000000	0.000000	-14.748962	-0.000042	0.000001	1.000000	
[EndOfFile]
